{"glyphs":{"0":{"ha":789,"x_min":0,"x_max":656,"o":"m 219 0 q 64 64 128 0 q 0 219 0 128 l 0 875 q 64 1029 0 964 q 219 1093 128 1093 l 437 1093 q 591 1029 527 1093 q 656 875 656 964 l 656 219 q 591 64 656 128 q 437 0 527 0 l 219 0 m 437 517 l 259 219 q 261 219 260 219 q 264 219 262 219 l 392 219 q 437 264 437 219 l 437 517 m 219 577 l 397 874 q 392 875 395 875 l 264 875 q 219 830 219 875 l 219 577 z "},"1":{"ha":458,"x_min":-3,"x_max":325,"o":"m 325 0 l 106 0 l 106 830 q 60 875 106 875 l -3 875 l -3 1093 l 106 1093 q 260 1029 196 1093 q 325 875 325 964 l 325 0 z "},"2":{"ha":789,"x_min":0,"x_max":656,"o":"m 656 0 l 0 0 l 0 437 q 32 514 0 482 q 109 547 64 547 l 437 547 l 437 830 q 392 875 437 875 l 264 875 q 219 830 219 875 l 219 656 l 0 656 l 0 875 q 64 1029 0 964 q 219 1093 128 1093 l 437 1093 q 591 1029 527 1093 q 656 875 656 964 l 656 437 q 624 360 656 392 q 547 328 591 328 l 219 328 l 219 219 l 656 219 l 656 0 z "},"3":{"ha":789,"x_min":0,"x_max":656,"o":"m 0 0 l 0 219 l 392 219 q 437 264 437 219 l 437 328 q 405 405 437 373 q 328 437 373 437 l 0 437 l 0 656 l 328 656 q 405 688 373 656 q 437 766 437 721 l 437 830 q 392 875 437 875 l 0 875 l 0 1093 l 437 1093 q 591 1029 527 1093 q 656 875 656 964 l 656 766 q 572 547 656 640 q 656 328 656 453 l 656 219 q 591 64 656 128 q 437 0 527 0 l 351 0 l 0 0 z "},"4":{"ha":789,"x_min":0,"x_max":656,"o":"m 220 328 q 64 393 129 328 q 0 548 0 457 l 0 1093 l 219 1093 l 219 591 q 264 547 219 547 l 437 547 l 437 1093 l 656 1093 l 656 0 l 437 0 l 437 328 l 220 328 z "},"5":{"ha":789,"x_min":0,"x_max":656,"o":"m 656 1093 l 656 875 l 219 875 l 219 766 l 547 766 q 624 733 591 766 q 656 656 656 701 l 656 219 q 591 64 656 128 q 437 0 527 0 l 219 0 q 64 64 128 0 q 0 219 0 128 l 0 437 l 219 437 l 219 264 q 264 219 219 219 l 392 219 q 437 264 437 219 l 437 547 l 109 547 q 32 579 64 547 q 0 656 0 611 l 0 1093 l 656 1093 z "},"6":{"ha":789,"x_min":0,"x_max":656,"o":"m 219 0 q 64 64 128 0 q 0 219 0 128 l 0 875 q 64 1029 0 964 q 219 1093 128 1093 l 656 1093 l 656 875 l 264 875 q 219 829 219 875 l 219 766 l 437 766 q 591 701 527 766 q 656 547 656 637 l 656 219 q 591 64 656 128 q 437 0 527 0 l 219 0 m 437 264 l 437 502 q 392 547 437 547 l 264 547 q 219 502 219 547 l 219 264 q 264 219 219 219 l 392 219 q 437 264 437 219 z "},"7":{"ha":789,"x_min":0,"x_max":656,"o":"m 437 0 l 219 0 l 219 577 l 397 875 l 0 875 l 0 1093 l 557 1093 q 627 1064 598 1093 q 656 995 656 1036 l 656 880 l 437 517 l 437 0 z "},"8":{"ha":789,"x_min":0,"x_max":656,"o":"m 392 219 q 437 264 437 219 l 437 328 q 405 405 437 373 q 328 437 373 437 q 251 405 283 437 q 219 328 219 373 l 219 264 q 264 219 219 219 l 392 219 m 328 656 q 405 688 373 656 q 437 766 437 721 l 437 830 q 392 875 437 875 l 264 875 q 219 830 219 875 l 219 766 q 251 688 219 721 q 328 656 283 656 m 437 1093 q 591 1029 527 1093 q 656 875 656 964 l 656 766 q 572 547 656 640 q 656 328 656 453 l 656 219 q 591 64 656 128 q 437 0 527 0 l 219 0 q 64 64 128 0 q 0 219 0 128 l 0 328 q 84 547 0 452 q 0 766 0 640 l 0 875 q 64 1029 0 964 q 219 1093 128 1093 l 437 1093 z "},"9":{"ha":789,"x_min":0,"x_max":656,"o":"m 437 1093 q 591 1029 527 1093 q 656 875 656 964 l 656 219 q 591 64 656 128 q 437 0 527 0 l 0 0 l 0 219 l 393 219 q 437 264 437 219 l 437 328 l 219 328 q 64 392 128 328 q 0 547 0 456 l 0 875 q 64 1029 0 964 q 219 1093 128 1093 l 437 1093 m 219 830 l 219 591 q 264 547 219 547 l 392 547 q 437 591 437 547 l 437 830 q 392 875 437 875 l 264 875 q 219 830 219 875 z "}," ":{"ha":475,"x_min":0,"x_max":0,"o":""},"A":{"ha":789,"x_min":0,"x_max":656,"o":"m 0 0 l 0 875 q 64 1029 0 964 q 219 1093 128 1093 l 437 1093 q 591 1029 527 1093 q 656 875 656 964 l 656 0 l 437 0 l 437 219 l 219 219 l 219 0 l 0 0 m 264 875 q 219 830 219 875 l 219 437 l 437 437 l 437 830 q 392 875 437 875 l 264 875 z "},"a":{"ha":789,"x_min":0,"x_max":656,"o":"m 0 0 l 0 875 q 64 1029 0 964 q 219 1093 128 1093 l 437 1093 q 591 1029 527 1093 q 656 875 656 964 l 656 0 l 437 0 l 437 219 l 219 219 l 219 0 l 0 0 m 264 875 q 219 830 219 875 l 219 437 l 437 437 l 437 830 q 392 875 437 875 l 264 875 z "},"B":{"ha":791,"x_min":0,"x_max":658,"o":"m 0 0 l 1 492 l 0 492 l 0 1093 l 436 1093 q 591 1029 527 1093 q 656 873 656 964 l 656 711 q 582 547 656 612 q 657 382 658 481 l 656 219 q 591 64 655 128 q 437 0 527 0 l 0 0 m 437 392 q 393 437 437 437 l 219 437 l 219 219 l 393 219 q 437 264 437 219 l 437 392 m 437 829 q 393 875 437 875 l 219 875 l 219 656 l 393 656 q 437 702 437 656 l 437 829 z "},"b":{"ha":791,"x_min":0,"x_max":658,"o":"m 0 0 l 1 492 l 0 492 l 0 1093 l 436 1093 q 591 1029 527 1093 q 656 873 656 964 l 656 711 q 582 547 656 612 q 657 382 658 481 l 656 219 q 591 64 655 128 q 437 0 527 0 l 0 0 m 437 392 q 393 437 437 437 l 219 437 l 219 219 l 393 219 q 437 264 437 219 l 437 392 m 437 829 q 393 875 437 875 l 219 875 l 219 656 l 393 656 q 437 702 437 656 l 437 829 z "},"C":{"ha":789,"x_min":0,"x_max":656,"o":"m 219 0 q 64 64 128 0 q 0 219 0 128 l 0 875 q 64 1029 0 964 q 219 1093 128 1093 l 437 1093 q 591 1029 527 1093 q 656 875 656 964 l 656 656 l 437 656 l 437 830 q 392 875 437 875 l 264 875 q 219 830 219 875 l 219 264 q 264 219 219 219 l 392 219 q 437 264 437 219 l 437 437 l 656 437 l 656 219 q 591 64 656 128 q 437 0 527 0 l 219 0 z "},"c":{"ha":789,"x_min":0,"x_max":656,"o":"m 219 0 q 64 64 128 0 q 0 219 0 128 l 0 875 q 64 1029 0 964 q 219 1093 128 1093 l 437 1093 q 591 1029 527 1093 q 656 875 656 964 l 656 656 l 437 656 l 437 830 q 392 875 437 875 l 264 875 q 219 830 219 875 l 219 264 q 264 219 219 219 l 392 219 q 437 264 437 219 l 437 437 l 656 437 l 656 219 q 591 64 656 128 q 437 0 527 0 l 219 0 z "},"D":{"ha":789,"x_min":0,"x_max":656,"o":"m 0 0 l 0 1093 l 437 1093 q 591 1029 527 1093 q 656 875 656 964 l 656 219 q 591 64 656 128 q 437 0 527 0 l 0 0 m 437 264 l 437 830 q 392 875 437 875 l 219 875 l 219 219 l 392 219 q 437 264 437 219 z "},"d":{"ha":789,"x_min":0,"x_max":656,"o":"m 0 0 l 0 1093 l 437 1093 q 591 1029 527 1093 q 656 875 656 964 l 656 219 q 591 64 656 128 q 437 0 527 0 l 0 0 m 437 264 l 437 830 q 392 875 437 875 l 219 875 l 219 219 l 392 219 q 437 264 437 219 z "},"E":{"ha":789,"x_min":0,"x_max":656,"o":"m 656 0 l 219 0 q 64 64 128 0 q 0 219 0 128 l 0 875 q 64 1029 0 964 q 219 1093 128 1093 l 656 1093 l 656 875 l 264 875 q 219 830 219 875 l 219 656 l 656 656 l 656 437 l 219 437 l 219 264 q 264 219 219 219 l 656 219 l 656 0 z "},"e":{"ha":789,"x_min":0,"x_max":656,"o":"m 656 0 l 219 0 q 64 64 128 0 q 0 219 0 128 l 0 875 q 64 1029 0 964 q 219 1093 128 1093 l 656 1093 l 656 875 l 264 875 q 219 830 219 875 l 219 656 l 656 656 l 656 437 l 219 437 l 219 264 q 264 219 219 219 l 656 219 l 656 0 z "},"F":{"ha":789,"x_min":0,"x_max":656,"o":"m 0 0 l 0 875 q 64 1029 0 964 q 219 1093 128 1093 l 656 1093 l 656 875 l 264 875 q 219 830 219 875 l 219 656 l 656 656 l 656 437 l 219 437 l 219 0 l 0 0 z "},"f":{"ha":789,"x_min":0,"x_max":656,"o":"m 0 0 l 0 875 q 64 1029 0 964 q 219 1093 128 1093 l 656 1093 l 656 875 l 264 875 q 219 830 219 875 l 219 656 l 656 656 l 656 437 l 219 437 l 219 0 l 0 0 z "},"G":{"ha":789,"x_min":0,"x_max":656,"o":"m 219 0 q 64 64 128 0 q 0 219 0 128 l 0 875 q 64 1029 0 964 q 219 1093 128 1093 l 656 1093 l 656 875 l 264 875 q 219 829 219 875 l 219 264 q 264 219 219 219 l 392 219 q 437 264 437 219 l 437 437 l 328 437 l 328 656 l 656 656 l 656 219 q 591 64 656 128 q 437 0 527 0 l 219 0 z "},"g":{"ha":789,"x_min":0,"x_max":656,"o":"m 219 0 q 64 64 128 0 q 0 219 0 128 l 0 875 q 64 1029 0 964 q 219 1093 128 1093 l 656 1093 l 656 875 l 264 875 q 219 829 219 875 l 219 264 q 264 219 219 219 l 392 219 q 437 264 437 219 l 437 437 l 328 437 l 328 656 l 656 656 l 656 219 q 591 64 656 128 q 437 0 527 0 l 219 0 z "},"H":{"ha":789,"x_min":0,"x_max":656,"o":"m 437 1093 l 656 1093 l 656 0 l 437 0 l 437 437 l 219 437 l 219 0 l 0 0 l 0 1093 l 219 1093 l 219 656 l 437 656 l 437 1093 z "},"h":{"ha":789,"x_min":0,"x_max":656,"o":"m 437 1093 l 656 1093 l 656 0 l 437 0 l 437 437 l 219 437 l 219 0 l 0 0 l 0 1093 l 219 1093 l 219 656 l 437 656 l 437 1093 z "},"I":{"ha":352,"x_min":0,"x_max":219,"o":"m 0 1093 l 219 1093 l 219 0 l 0 0 l 0 1093 z "},"i":{"ha":352,"x_min":0,"x_max":219,"o":"m 0 1093 l 219 1093 l 219 0 l 0 0 l 0 1093 z "},"J":{"ha":789,"x_min":0,"x_max":656,"o":"m 219 0 q 64 64 128 0 q 0 219 0 128 l 0 547 l 219 547 l 219 264 q 264 219 219 219 l 392 219 q 437 264 437 219 l 437 1093 l 656 1093 l 656 219 q 591 64 656 128 q 437 0 527 0 l 219 0 z "},"j":{"ha":789,"x_min":0,"x_max":656,"o":"m 219 0 q 64 64 128 0 q 0 219 0 128 l 0 547 l 219 547 l 219 264 q 264 219 219 219 l 392 219 q 437 264 437 219 l 437 1093 l 656 1093 l 656 219 q 591 64 656 128 q 437 0 527 0 l 219 0 z "},"K":{"ha":789,"x_min":0,"x_max":656,"o":"m 437 0 l 437 393 q 392 438 437 438 l 264 437 q 219 393 219 437 l 219 0 l 0 0 l 0 1093 l 219 1093 l 219 711 l 411 1093 l 656 1093 l 437 656 q 591 592 527 656 q 656 437 656 527 l 656 0 l 437 0 z "},"k":{"ha":789,"x_min":0,"x_max":656,"o":"m 437 0 l 437 393 q 392 438 437 438 l 264 437 q 219 393 219 437 l 219 0 l 0 0 l 0 1093 l 219 1093 l 219 711 l 411 1093 l 656 1093 l 437 656 q 591 592 527 656 q 656 437 656 527 l 656 0 l 437 0 z "},"L":{"ha":789,"x_min":0,"x_max":656,"o":"m 219 0 q 64 64 128 0 q 0 219 0 128 l 0 1093 l 219 1093 l 219 264 q 264 219 219 219 l 656 219 l 656 0 l 219 0 z "},"l":{"ha":789,"x_min":0,"x_max":656,"o":"m 219 0 q 64 64 128 0 q 0 219 0 128 l 0 1093 l 219 1093 l 219 264 q 264 219 219 219 l 656 219 l 656 0 l 219 0 z "},"M":{"ha":1226,"x_min":0,"x_max":1093,"o":"m 1093 0 l 875 0 l 875 875 l 766 875 q 688 843 721 875 q 656 766 656 810 l 656 0 l 437 0 l 437 766 q 405 843 437 810 q 328 875 373 875 l 219 875 l 219 0 l 0 0 l 0 1093 l 328 1093 q 547 1009 452 1093 q 766 1093 640 1093 l 1093 1093 l 1093 0 z "},"m":{"ha":1226,"x_min":0,"x_max":1093,"o":"m 1093 0 l 875 0 l 875 875 l 766 875 q 688 843 721 875 q 656 766 656 810 l 656 0 l 437 0 l 437 766 q 405 843 437 810 q 328 875 373 875 l 219 875 l 219 0 l 0 0 l 0 1093 l 328 1093 q 547 1009 452 1093 q 766 1093 640 1093 l 1093 1093 l 1093 0 z "},"N":{"ha":789,"x_min":0,"x_max":656,"o":"m 437 1034 l 437 1093 l 656 1093 l 656 0 l 437 0 l 437 656 q 373 810 437 745 q 219 875 309 875 l 219 0 l 0 0 l 0 1093 l 219 1093 q 437 1034 337 1093 z "},"n":{"ha":789,"x_min":0,"x_max":656,"o":"m 437 1034 l 437 1093 l 656 1093 l 656 0 l 437 0 l 437 656 q 373 810 437 745 q 219 875 309 875 l 219 0 l 0 0 l 0 1093 l 219 1093 q 437 1034 337 1093 z "},"O":{"ha":789,"x_min":0,"x_max":656,"o":"m 219 0 q 64 64 128 0 q 0 219 0 128 l 0 875 q 64 1029 0 964 q 219 1093 128 1093 l 437 1093 q 591 1029 527 1093 q 656 875 656 964 l 656 219 q 591 64 656 128 q 437 0 527 0 l 219 0 m 264 875 q 219 830 219 875 l 219 264 q 264 219 219 219 l 392 219 q 437 264 437 219 l 437 830 q 392 875 437 875 l 264 875 z "},"o":{"ha":789,"x_min":0,"x_max":656,"o":"m 219 0 q 64 64 128 0 q 0 219 0 128 l 0 875 q 64 1029 0 964 q 219 1093 128 1093 l 437 1093 q 591 1029 527 1093 q 656 875 656 964 l 656 219 q 591 64 656 128 q 437 0 527 0 l 219 0 m 264 875 q 219 830 219 875 l 219 264 q 264 219 219 219 l 392 219 q 437 264 437 219 l 437 830 q 392 875 437 875 l 264 875 z "},"P":{"ha":789,"x_min":0,"x_max":656,"o":"m 0 0 l 0 1093 l 437 1093 q 591 1029 527 1093 q 656 875 656 964 l 656 437 q 591 283 656 347 q 437 219 527 219 l 219 219 l 219 0 l 0 0 m 437 482 l 437 830 q 392 875 437 875 l 219 875 l 219 437 l 392 437 q 437 482 437 437 z "},"p":{"ha":789,"x_min":0,"x_max":656,"o":"m 0 0 l 0 1093 l 437 1093 q 591 1029 527 1093 q 656 875 656 964 l 656 437 q 591 283 656 347 q 437 219 527 219 l 219 219 l 219 0 l 0 0 m 437 482 l 437 830 q 392 875 437 875 l 219 875 l 219 437 l 392 437 q 437 482 437 437 z "},"Q":{"ha":789,"x_min":0,"x_max":656,"o":"m 437 0 l 437 -109 l 219 -109 l 219 0 q 64 64 128 0 q 0 219 0 128 l 0 875 q 64 1029 0 964 q 219 1093 128 1093 l 437 1093 q 591 1029 527 1093 q 656 875 656 964 l 656 219 q 591 64 656 128 q 437 0 527 0 m 264 875 q 219 830 219 875 l 219 264 q 264 219 219 219 l 392 219 q 437 264 437 219 l 437 830 q 392 875 437 875 l 264 875 z "},"q":{"ha":789,"x_min":0,"x_max":656,"o":"m 437 0 l 437 -109 l 219 -109 l 219 0 q 64 64 128 0 q 0 219 0 128 l 0 875 q 64 1029 0 964 q 219 1093 128 1093 l 437 1093 q 591 1029 527 1093 q 656 875 656 964 l 656 219 q 591 64 656 128 q 437 0 527 0 m 264 875 q 219 830 219 875 l 219 264 q 264 219 219 219 l 392 219 q 437 264 437 219 l 437 830 q 392 875 437 875 l 264 875 z "},"R":{"ha":789,"x_min":0,"x_max":656,"o":"m 0 0 l 0 1093 l 437 1093 q 591 1029 527 1093 q 656 875 656 964 l 656 437 q 618 314 656 369 q 520 235 580 260 l 656 0 l 404 0 l 277 219 l 219 219 l 219 0 l 0 0 m 437 482 l 437 830 q 392 875 437 875 l 219 875 l 219 437 l 392 437 q 437 482 437 437 z "},"r":{"ha":789,"x_min":0,"x_max":656,"o":"m 0 0 l 0 1093 l 437 1093 q 591 1029 527 1093 q 656 875 656 964 l 656 437 q 618 314 656 369 q 520 235 580 260 l 656 0 l 404 0 l 277 219 l 219 219 l 219 0 l 0 0 m 437 482 l 437 830 q 392 875 437 875 l 219 875 l 219 437 l 392 437 q 437 482 437 437 z "},"S":{"ha":789,"x_min":0,"x_max":656,"o":"m 219 0 q 64 64 128 0 q 0 219 0 128 l 0 328 l 219 328 l 219 264 q 264 219 219 219 l 392 219 q 437 264 437 219 l 437 437 l 109 437 q 32 470 64 437 q 0 547 0 502 l 0 875 q 64 1029 0 964 q 219 1093 128 1093 l 437 1093 q 591 1029 527 1093 q 656 875 656 964 l 656 766 l 437 766 l 437 830 q 392 875 437 875 l 264 875 q 219 830 219 875 l 219 656 l 547 656 q 624 624 591 656 q 656 547 656 591 l 656 219 q 591 64 656 128 q 437 0 527 0 l 219 0 z "},"s":{"ha":789,"x_min":0,"x_max":656,"o":"m 219 0 q 64 64 128 0 q 0 219 0 128 l 0 328 l 219 328 l 219 264 q 264 219 219 219 l 392 219 q 437 264 437 219 l 437 437 l 109 437 q 32 470 64 437 q 0 547 0 502 l 0 875 q 64 1029 0 964 q 219 1093 128 1093 l 437 1093 q 591 1029 527 1093 q 656 875 656 964 l 656 766 l 437 766 l 437 830 q 392 875 437 875 l 264 875 q 219 830 219 875 l 219 656 l 547 656 q 624 624 591 656 q 656 547 656 591 l 656 219 q 591 64 656 128 q 437 0 527 0 l 219 0 z "},"T":{"ha":789,"x_min":0,"x_max":656,"o":"m 0 875 l 0 1093 l 656 1093 l 656 875 l 437 875 l 437 0 l 219 0 l 219 875 l 0 875 z "},"t":{"ha":789,"x_min":0,"x_max":656,"o":"m 0 875 l 0 1093 l 656 1093 l 656 875 l 437 875 l 437 0 l 219 0 l 219 875 l 0 875 z "},"U":{"ha":789,"x_min":0,"x_max":656,"o":"m 219 0 q 64 64 128 0 q 0 219 0 128 l 0 1093 l 219 1093 l 219 264 q 264 219 219 219 l 392 219 q 437 264 437 219 l 437 1093 l 656 1093 l 656 219 q 591 64 656 128 q 437 0 527 0 l 219 0 z "},"u":{"ha":789,"x_min":0,"x_max":656,"o":"m 219 0 q 64 64 128 0 q 0 219 0 128 l 0 1093 l 219 1093 l 219 264 q 264 219 219 219 l 392 219 q 437 264 437 219 l 437 1093 l 656 1093 l 656 219 q 591 64 656 128 q 437 0 527 0 l 219 0 z "},"V":{"ha":789,"x_min":0,"x_max":656,"o":"m 328 309 l 437 418 l 437 1093 l 656 1093 l 656 389 q 615 287 656 328 l 328 0 l 41 287 q 0 389 0 328 l 0 1093 l 219 1093 l 219 418 l 328 309 z "},"v":{"ha":789,"x_min":0,"x_max":656,"o":"m 328 309 l 437 418 l 437 1093 l 656 1093 l 656 389 q 615 287 656 328 l 328 0 l 41 287 q 0 389 0 328 l 0 1093 l 219 1093 l 219 418 l 328 309 z "},"W":{"ha":1226,"x_min":0,"x_max":1093,"o":"m 0 1093 l 219 1093 l 219 219 l 328 219 q 405 251 373 219 q 437 328 437 283 l 437 1093 l 656 1093 l 656 328 q 688 251 656 283 q 766 219 721 219 l 875 219 l 875 1093 l 1093 1093 l 1093 0 l 766 0 q 547 84 640 0 q 328 0 452 0 l 0 0 l 0 1093 z "},"w":{"ha":1226,"x_min":0,"x_max":1093,"o":"m 0 1093 l 219 1093 l 219 219 l 328 219 q 405 251 373 219 q 437 328 437 283 l 437 1093 l 656 1093 l 656 328 q 688 251 656 283 q 766 219 721 219 l 875 219 l 875 1093 l 1093 1093 l 1093 0 l 766 0 q 547 84 640 0 q 328 0 452 0 l 0 0 l 0 1093 z "},"X":{"ha":789,"x_min":0,"x_max":656,"o":"m 328 401 l 219 292 l 219 0 l 0 0 l 0 321 q 41 424 0 383 l 164 547 l 41 670 q 0 772 0 711 l 0 1093 l 219 1093 l 219 802 l 328 692 l 437 802 l 437 1093 l 656 1093 l 656 772 q 615 670 656 711 l 492 547 l 615 424 q 656 321 656 383 l 656 0 l 437 0 l 437 292 l 328 401 z "},"x":{"ha":789,"x_min":0,"x_max":656,"o":"m 328 401 l 219 292 l 219 0 l 0 0 l 0 321 q 41 424 0 383 l 164 547 l 41 670 q 0 772 0 711 l 0 1093 l 219 1093 l 219 802 l 328 692 l 437 802 l 437 1093 l 656 1093 l 656 772 q 615 670 656 711 l 492 547 l 615 424 q 656 321 656 383 l 656 0 l 437 0 l 437 292 l 328 401 z "},"Y":{"ha":789,"x_min":0,"x_max":656,"o":"m 328 583 l 437 692 l 437 1093 l 656 1093 l 656 663 q 615 560 656 602 l 437 382 l 437 0 l 219 0 l 219 382 l 41 560 q 0 663 0 602 l 0 1093 l 219 1093 l 219 692 l 328 583 z "},"y":{"ha":789,"x_min":0,"x_max":656,"o":"m 328 583 l 437 692 l 437 1093 l 656 1093 l 656 663 q 615 560 656 602 l 437 382 l 437 0 l 219 0 l 219 382 l 41 560 q 0 663 0 602 l 0 1093 l 219 1093 l 219 692 l 328 583 z "},"Z":{"ha":789,"x_min":0,"x_max":656,"o":"m 98 0 q 29 29 58 0 q 0 98 0 58 l 0 213 l 397 875 l 0 875 l 0 1093 l 557 1093 q 627 1064 598 1093 q 656 995 656 1036 l 656 880 l 258 219 l 656 219 l 656 0 l 98 0 z "},"z":{"ha":789,"x_min":0,"x_max":656,"o":"m 98 0 q 29 29 58 0 q 0 98 0 58 l 0 213 l 397 875 l 0 875 l 0 1093 l 557 1093 q 627 1064 598 1093 q 656 995 656 1036 l 656 880 l 258 219 l 656 219 l 656 0 l 98 0 z "},"$":{"ha":789,"x_min":0,"x_max":656,"o":"m 437 0 l 437 -109 l 219 -109 l 219 0 q 64 64 128 0 q 0 219 0 128 l 0 328 l 219 328 l 219 264 q 264 219 219 219 l 392 219 q 437 264 437 219 l 437 437 l 109 437 q 32 470 64 437 q 0 547 0 502 l 0 875 q 64 1029 0 964 q 219 1093 128 1093 l 219 1203 l 437 1203 l 437 1093 q 591 1029 527 1093 q 656 875 656 964 l 656 766 l 437 766 l 437 830 q 392 875 437 875 l 264 875 q 219 830 219 875 l 219 656 l 547 656 q 624 624 591 656 q 656 547 656 591 l 656 219 q 591 64 656 128 q 437 0 527 0 z "},".":{"ha":352,"x_min":0,"x_max":219,"o":"m 0 0 l 0 219 l 219 219 l 219 0 l 0 0 z "},",":{"ha":352,"x_min":0,"x_max":219,"o":"m 0 -109 l 0 219 l 219 219 l 219 0 l 109 -109 l 0 -109 z "},"+":{"ha":570,"x_min":0,"x_max":437,"o":"m 0 656 l 109 656 l 109 766 l 328 766 l 328 656 l 437 656 l 437 437 l 328 437 l 328 328 l 109 328 l 109 437 l 0 437 l 0 656 z "},"-":{"ha":570,"x_min":0,"x_max":437,"o":"m 0 437 l 0 656 l 437 656 l 437 437 l 0 437 z "},"=":{"ha":570,"x_min":0,"x_max":437,"o":"m 0 492 l 437 492 l 437 273 l 0 273 l 0 492 m 0 820 l 437 820 l 437 602 l 0 602 l 0 820 z "},"/":{"ha":789,"x_min":1,"x_max":656,"o":"m 656 1093 l 235 0 l 1 0 l 422 1093 l 656 1093 z "},"\\":{"ha":788,"x_min":0,"x_max":655,"o":"m 0 1093 l 234 1093 l 655 0 l 421 0 l 0 1093 z "},"|":{"ha":242,"x_min":0,"x_max":109,"o":"m 0 -109 l 0 1203 l 109 1203 l 109 -109 l 0 -109 z "},"&":{"ha":899,"x_min":0,"x_max":766,"o":"m 328 0 l 306 0 l 300 0 l 219 0 q 64 64 128 0 q 0 219 0 128 l 0 328 q 84 547 0 452 q 0 766 0 640 l 0 875 q 64 1029 0 964 q 219 1093 128 1093 l 300 1093 l 328 1093 l 656 1093 l 656 875 l 300 875 l 300 875 l 264 875 q 219 830 219 875 l 219 766 q 251 688 219 721 q 328 656 283 656 l 766 656 l 766 437 l 656 437 l 656 219 q 591 64 656 128 q 437 0 527 0 l 328 0 m 325 437 q 250 404 281 435 q 219 328 219 372 l 219 264 q 264 219 219 219 l 328 219 l 328 219 l 392 219 q 437 264 437 219 l 437 437 l 325 437 z "},";":{"ha":352,"x_min":0,"x_max":219,"o":"m 0 -109 l 0 219 l 219 219 l 219 0 l 109 -109 l 0 -109 m 0 328 l 0 547 l 219 547 l 219 328 l 0 328 z "},":":{"ha":352,"x_min":0,"x_max":219,"o":"m 0 0 l 0 219 l 219 219 l 219 0 l 0 0 m 0 328 l 0 547 l 219 547 l 219 328 l 0 328 z "},"@":{"ha":680,"x_min":109,"x_max":547,"o":"m 343 663 l 533 663 l 533 600 l 509 600 l 509 639 l 367 639 l 367 599 q 407 559 367 559 l 422 559 l 422 535 l 407 535 q 343 599 343 535 l 343 663 m 427 500 l 229 500 l 229 460 l 205 460 l 205 633 l 229 633 l 229 524 l 427 524 l 427 633 l 451 633 l 451 460 l 427 460 l 427 500 m 451 425 l 451 397 l 471 397 l 471 374 l 408 374 l 408 397 l 427 397 l 427 425 l 451 425 m 229 425 l 229 397 l 248 397 l 248 374 l 186 374 l 186 397 l 205 397 l 205 425 l 229 425 m 427 669 q 390 696 418 696 l 267 696 q 231 669 237 696 l 206 669 q 267 720 214 720 l 390 720 q 450 669 441 720 l 427 669 m 109 431 l 109 494 q 174 559 109 559 l 189 559 l 200 559 l 200 535 l 189 535 l 189 535 l 174 535 q 133 494 133 535 l 133 454 l 290 454 l 290 494 l 313 494 l 313 431 l 109 431 m 235 535 l 235 559 l 238 559 l 238 559 l 250 559 q 290 599 290 559 q 250 639 290 639 l 148 639 l 148 600 l 124 600 l 124 663 l 250 663 q 313 599 313 663 q 250 535 313 535 l 238 535 l 235 535 m 457 559 l 472 559 l 484 559 q 547 495 547 559 q 484 431 547 431 l 343 431 l 343 494 l 367 494 l 367 454 l 484 454 q 524 494 524 454 q 484 535 524 535 l 472 535 l 472 535 l 457 535 l 457 559 z "},"*":{"ha":625,"x_min":0,"x_max":492,"o":"m 164 602 l 164 705 l 0 611 l 0 800 l 82 847 l 0 895 l 0 1084 l 164 989 l 164 1093 l 328 1093 l 328 989 l 492 1084 l 492 895 l 410 847 l 492 800 l 492 611 l 328 705 l 328 602 l 164 602 z "},"(":{"ha":461,"x_min":0,"x_max":328,"o":"m 219 0 q 64 64 128 0 q 0 219 0 128 l 0 875 q 64 1029 0 964 q 219 1093 128 1093 l 328 1093 l 328 875 l 264 875 q 219 830 219 875 l 219 264 q 264 219 219 219 l 328 219 l 328 0 l 219 0 z "},")":{"ha":461,"x_min":0,"x_max":328,"o":"m 109 0 l 0 0 l 0 219 l 64 219 q 109 264 109 219 l 109 830 q 64 875 109 875 l 0 875 l 0 1093 l 109 1093 q 264 1029 199 1093 q 328 875 328 964 l 328 219 q 264 64 328 128 q 109 0 199 0 z "},"{":{"ha":461,"x_min":0,"x_max":328,"o":"m 219 0 q 64 64 128 0 q 0 219 0 128 l 0 492 l 109 492 l 0 602 l 0 875 q 64 1029 0 964 q 219 1093 128 1093 l 328 1093 l 328 875 l 264 875 q 219 830 219 875 l 219 264 q 264 219 219 219 l 328 219 l 328 0 l 219 0 z "},"}":{"ha":461,"x_min":0,"x_max":328,"o":"m 109 0 l 0 0 l 0 219 l 64 219 q 109 264 109 219 l 109 830 q 64 875 109 875 l 0 875 l 0 1093 l 109 1093 q 264 1029 199 1093 q 328 875 328 964 l 328 602 l 219 492 l 328 492 l 328 219 q 264 64 328 128 q 109 0 199 0 z "},"~":{"ha":680,"x_min":109,"x_max":547,"o":"m 343 663 l 533 663 l 533 600 l 509 600 l 509 639 l 367 639 l 367 599 q 407 559 367 559 l 422 559 l 422 535 l 407 535 q 343 599 343 535 l 343 663 m 427 500 l 229 500 l 229 460 l 205 460 l 205 633 l 229 633 l 229 524 l 427 524 l 427 633 l 451 633 l 451 460 l 427 460 l 427 500 m 451 425 l 451 397 l 471 397 l 471 374 l 408 374 l 408 397 l 427 397 l 427 425 l 451 425 m 229 425 l 229 397 l 248 397 l 248 374 l 186 374 l 186 397 l 205 397 l 205 425 l 229 425 m 427 669 q 390 696 418 696 l 267 696 q 231 669 237 696 l 206 669 q 267 720 214 720 l 390 720 q 450 669 441 720 l 427 669 m 109 431 l 109 494 q 174 559 109 559 l 189 559 l 200 559 l 200 535 l 189 535 l 189 535 l 174 535 q 133 494 133 535 l 133 454 l 290 454 l 290 494 l 313 494 l 313 431 l 109 431 m 235 535 l 235 559 l 238 559 l 238 559 l 250 559 q 290 599 290 559 q 250 639 290 639 l 148 639 l 148 600 l 124 600 l 124 663 l 250 663 q 313 599 313 663 q 250 535 313 535 l 238 535 l 235 535 m 457 559 l 472 559 l 484 559 q 547 495 547 559 q 484 431 547 431 l 343 431 l 343 494 l 367 494 l 367 454 l 484 454 q 524 494 524 454 q 484 535 524 535 l 472 535 l 472 535 l 457 535 l 457 559 z "},"?":{"ha":789,"x_min":0,"x_max":656,"o":"m 219 328 l 0 328 l 0 547 q 32 624 0 591 q 109 656 64 656 l 437 656 l 437 830 q 392 875 437 875 l 264 875 q 219 830 219 875 l 219 766 l 0 766 l 0 875 q 64 1029 0 964 q 219 1093 128 1093 l 437 1093 q 591 1029 527 1093 q 656 875 656 964 l 656 547 q 624 470 656 502 q 547 437 591 437 l 219 437 l 219 328 m 219 219 l 219 0 l 0 0 l 0 219 l 219 219 z "},"!":{"ha":352,"x_min":0,"x_max":219,"o":"m 0 328 l 0 1093 l 219 1093 l 219 328 l 0 328 m 0 0 l 0 219 l 219 219 l 219 0 l 0 0 z "},"%":{"ha":789,"x_min":0,"x_max":656,"o":"m 597 1093 l 177 0 l 60 0 l 480 1093 l 597 1093 m 481 0 q 419 25 445 0 q 394 87 394 51 l 394 350 q 419 412 394 386 q 481 437 445 437 l 568 437 q 630 412 605 437 q 656 350 656 386 l 656 87 q 630 25 656 51 q 568 0 605 0 l 481 0 m 499 87 l 551 87 q 568 105 568 87 l 568 332 q 551 350 568 350 l 499 350 q 481 332 481 350 l 481 105 q 499 87 481 87 m 87 656 q 25 682 51 656 q 0 743 0 707 l 0 1006 q 25 1067 0 1042 q 87 1093 51 1093 l 175 1093 q 237 1067 211 1093 q 262 1006 262 1042 l 262 743 q 237 682 262 707 q 175 656 211 656 l 87 656 m 106 744 l 157 743 q 175 762 175 743 l 175 988 q 157 1006 175 1006 l 106 1006 q 87 988 87 1006 l 87 762 q 106 744 87 744 z "},"[":{"ha":461,"x_min":0,"x_max":328,"o":"m 0 1093 l 328 1093 l 328 984 l 219 984 l 219 109 l 328 109 l 328 0 l 0 0 l 0 1093 z "},"]":{"ha":461,"x_min":0,"x_max":328,"o":"m 328 1093 l 328 0 l 0 0 l 0 109 l 109 109 l 109 984 l 0 984 l 0 1093 l 328 1093 z "},"#":{"ha":789,"x_min":0,"x_max":656,"o":"m 0 437 l 109 437 l 109 656 l 0 656 l 0 875 l 109 875 l 109 984 l 255 984 l 255 875 l 401 875 l 401 984 l 547 984 l 547 875 l 656 875 l 656 656 l 547 656 l 547 437 l 656 437 l 656 219 l 547 219 l 547 109 l 401 109 l 401 219 l 255 219 l 255 109 l 109 109 l 109 219 l 0 219 l 0 437 m 255 437 l 401 437 l 401 656 l 255 656 l 255 437 z "},"\"":{"ha":680,"x_min":109,"x_max":547,"o":"m 343 663 l 533 663 l 533 600 l 509 600 l 509 639 l 367 639 l 367 599 q 407 559 367 559 l 422 559 l 422 535 l 407 535 q 343 599 343 535 l 343 663 m 427 500 l 229 500 l 229 460 l 205 460 l 205 633 l 229 633 l 229 524 l 427 524 l 427 633 l 451 633 l 451 460 l 427 460 l 427 500 m 451 425 l 451 397 l 471 397 l 471 374 l 408 374 l 408 397 l 427 397 l 427 425 l 451 425 m 229 425 l 229 397 l 248 397 l 248 374 l 186 374 l 186 397 l 205 397 l 205 425 l 229 425 m 427 669 q 390 696 418 696 l 267 696 q 231 669 237 696 l 206 669 q 267 720 214 720 l 390 720 q 450 669 441 720 l 427 669 m 109 431 l 109 494 q 174 559 109 559 l 189 559 l 200 559 l 200 535 l 189 535 l 189 535 l 174 535 q 133 494 133 535 l 133 454 l 290 454 l 290 494 l 313 494 l 313 431 l 109 431 m 235 535 l 235 559 l 238 559 l 238 559 l 250 559 q 290 599 290 559 q 250 639 290 639 l 148 639 l 148 600 l 124 600 l 124 663 l 250 663 q 313 599 313 663 q 250 535 313 535 l 238 535 l 235 535 m 457 559 l 472 559 l 484 559 q 547 495 547 559 q 484 431 547 431 l 343 431 l 343 494 l 367 494 l 367 454 l 484 454 q 524 494 524 454 q 484 535 524 535 l 472 535 l 472 535 l 457 535 l 457 559 z "},"'":{"ha":680,"x_min":109,"x_max":547,"o":"m 343 663 l 533 663 l 533 600 l 509 600 l 509 639 l 367 639 l 367 599 q 407 559 367 559 l 422 559 l 422 535 l 407 535 q 343 599 343 535 l 343 663 m 427 500 l 229 500 l 229 460 l 205 460 l 205 633 l 229 633 l 229 524 l 427 524 l 427 633 l 451 633 l 451 460 l 427 460 l 427 500 m 451 425 l 451 397 l 471 397 l 471 374 l 408 374 l 408 397 l 427 397 l 427 425 l 451 425 m 229 425 l 229 397 l 248 397 l 248 374 l 186 374 l 186 397 l 205 397 l 205 425 l 229 425 m 427 669 q 390 696 418 696 l 267 696 q 231 669 237 696 l 206 669 q 267 720 214 720 l 390 720 q 450 669 441 720 l 427 669 m 109 431 l 109 494 q 174 559 109 559 l 189 559 l 200 559 l 200 535 l 189 535 l 189 535 l 174 535 q 133 494 133 535 l 133 454 l 290 454 l 290 494 l 313 494 l 313 431 l 109 431 m 235 535 l 235 559 l 238 559 l 238 559 l 250 559 q 290 599 290 559 q 250 639 290 639 l 148 639 l 148 600 l 124 600 l 124 663 l 250 663 q 313 599 313 663 q 250 535 313 535 l 238 535 l 235 535 m 457 559 l 472 559 l 484 559 q 547 495 547 559 q 484 431 547 431 l 343 431 l 343 494 l 367 494 l 367 454 l 484 454 q 524 494 524 454 q 484 535 524 535 l 472 535 l 472 535 l 457 535 l 457 559 z "},"<":{"ha":680,"x_min":109,"x_max":547,"o":"m 343 663 l 533 663 l 533 600 l 509 600 l 509 639 l 367 639 l 367 599 q 407 559 367 559 l 422 559 l 422 535 l 407 535 q 343 599 343 535 l 343 663 m 427 500 l 229 500 l 229 460 l 205 460 l 205 633 l 229 633 l 229 524 l 427 524 l 427 633 l 451 633 l 451 460 l 427 460 l 427 500 m 451 425 l 451 397 l 471 397 l 471 374 l 408 374 l 408 397 l 427 397 l 427 425 l 451 425 m 229 425 l 229 397 l 248 397 l 248 374 l 186 374 l 186 397 l 205 397 l 205 425 l 229 425 m 427 669 q 390 696 418 696 l 267 696 q 231 669 237 696 l 206 669 q 267 720 214 720 l 390 720 q 450 669 441 720 l 427 669 m 109 431 l 109 494 q 174 559 109 559 l 189 559 l 200 559 l 200 535 l 189 535 l 189 535 l 174 535 q 133 494 133 535 l 133 454 l 290 454 l 290 494 l 313 494 l 313 431 l 109 431 m 235 535 l 235 559 l 238 559 l 238 559 l 250 559 q 290 599 290 559 q 250 639 290 639 l 148 639 l 148 600 l 124 600 l 124 663 l 250 663 q 313 599 313 663 q 250 535 313 535 l 238 535 l 235 535 m 457 559 l 472 559 l 484 559 q 547 495 547 559 q 484 431 547 431 l 343 431 l 343 494 l 367 494 l 367 454 l 484 454 q 524 494 524 454 q 484 535 524 535 l 472 535 l 472 535 l 457 535 l 457 559 z "},">":{"ha":680,"x_min":109,"x_max":547,"o":"m 343 663 l 533 663 l 533 600 l 509 600 l 509 639 l 367 639 l 367 599 q 407 559 367 559 l 422 559 l 422 535 l 407 535 q 343 599 343 535 l 343 663 m 427 500 l 229 500 l 229 460 l 205 460 l 205 633 l 229 633 l 229 524 l 427 524 l 427 633 l 451 633 l 451 460 l 427 460 l 427 500 m 451 425 l 451 397 l 471 397 l 471 374 l 408 374 l 408 397 l 427 397 l 427 425 l 451 425 m 229 425 l 229 397 l 248 397 l 248 374 l 186 374 l 186 397 l 205 397 l 205 425 l 229 425 m 427 669 q 390 696 418 696 l 267 696 q 231 669 237 696 l 206 669 q 267 720 214 720 l 390 720 q 450 669 441 720 l 427 669 m 109 431 l 109 494 q 174 559 109 559 l 189 559 l 200 559 l 200 535 l 189 535 l 189 535 l 174 535 q 133 494 133 535 l 133 454 l 290 454 l 290 494 l 313 494 l 313 431 l 109 431 m 235 535 l 235 559 l 238 559 l 238 559 l 250 559 q 290 599 290 559 q 250 639 290 639 l 148 639 l 148 600 l 124 600 l 124 663 l 250 663 q 313 599 313 663 q 250 535 313 535 l 238 535 l 235 535 m 457 559 l 472 559 l 484 559 q 547 495 547 559 q 484 431 547 431 l 343 431 l 343 494 l 367 494 l 367 454 l 484 454 q 524 494 524 454 q 484 535 524 535 l 472 535 l 472 535 l 457 535 l 457 559 z "},"^":{"ha":680,"x_min":109,"x_max":547,"o":"m 343 663 l 533 663 l 533 600 l 509 600 l 509 639 l 367 639 l 367 599 q 407 559 367 559 l 422 559 l 422 535 l 407 535 q 343 599 343 535 l 343 663 m 427 500 l 229 500 l 229 460 l 205 460 l 205 633 l 229 633 l 229 524 l 427 524 l 427 633 l 451 633 l 451 460 l 427 460 l 427 500 m 451 425 l 451 397 l 471 397 l 471 374 l 408 374 l 408 397 l 427 397 l 427 425 l 451 425 m 229 425 l 229 397 l 248 397 l 248 374 l 186 374 l 186 397 l 205 397 l 205 425 l 229 425 m 427 669 q 390 696 418 696 l 267 696 q 231 669 237 696 l 206 669 q 267 720 214 720 l 390 720 q 450 669 441 720 l 427 669 m 109 431 l 109 494 q 174 559 109 559 l 189 559 l 200 559 l 200 535 l 189 535 l 189 535 l 174 535 q 133 494 133 535 l 133 454 l 290 454 l 290 494 l 313 494 l 313 431 l 109 431 m 235 535 l 235 559 l 238 559 l 238 559 l 250 559 q 290 599 290 559 q 250 639 290 639 l 148 639 l 148 600 l 124 600 l 124 663 l 250 663 q 313 599 313 663 q 250 535 313 535 l 238 535 l 235 535 m 457 559 l 472 559 l 484 559 q 547 495 547 559 q 484 431 547 431 l 343 431 l 343 494 l 367 494 l 367 454 l 484 454 q 524 494 524 454 q 484 535 524 535 l 472 535 l 472 535 l 457 535 l 457 559 z "},"`":{"ha":680,"x_min":109,"x_max":547,"o":"m 343 663 l 533 663 l 533 600 l 509 600 l 509 639 l 367 639 l 367 599 q 407 559 367 559 l 422 559 l 422 535 l 407 535 q 343 599 343 535 l 343 663 m 427 500 l 229 500 l 229 460 l 205 460 l 205 633 l 229 633 l 229 524 l 427 524 l 427 633 l 451 633 l 451 460 l 427 460 l 427 500 m 451 425 l 451 397 l 471 397 l 471 374 l 408 374 l 408 397 l 427 397 l 427 425 l 451 425 m 229 425 l 229 397 l 248 397 l 248 374 l 186 374 l 186 397 l 205 397 l 205 425 l 229 425 m 427 669 q 390 696 418 696 l 267 696 q 231 669 237 696 l 206 669 q 267 720 214 720 l 390 720 q 450 669 441 720 l 427 669 m 109 431 l 109 494 q 174 559 109 559 l 189 559 l 200 559 l 200 535 l 189 535 l 189 535 l 174 535 q 133 494 133 535 l 133 454 l 290 454 l 290 494 l 313 494 l 313 431 l 109 431 m 235 535 l 235 559 l 238 559 l 238 559 l 250 559 q 290 599 290 559 q 250 639 290 639 l 148 639 l 148 600 l 124 600 l 124 663 l 250 663 q 313 599 313 663 q 250 535 313 535 l 238 535 l 235 535 m 457 559 l 472 559 l 484 559 q 547 495 547 559 q 484 431 547 431 l 343 431 l 343 494 l 367 494 l 367 454 l 484 454 q 524 494 524 454 q 484 535 524 535 l 472 535 l 472 535 l 457 535 l 457 559 z "}}}
